<?xml version="1.0" encoding="UTF-8"?>
<!DOCTYPE svg PUBLIC "-//W3C//DTD SVG 1.1//EN" "http://www.w3.org/Graphics/SVG/1.1/DTD/svg11.dtd">
<!-- Creator: CorelDRAW X7 -->
<svg xmlns="http://www.w3.org/2000/svg" xml:space="preserve" width="33.8019mm" height="30.347mm" version="1.1" style="shape-rendering:geometricPrecision; text-rendering:geometricPrecision; image-rendering:optimizeQuality; fill-rule:evenodd; clip-rule:evenodd"
viewBox="0 0 3380 3035"
 xmlns:xlink="http://www.w3.org/1999/xlink">
 <defs>
  <style type="text/css">
   <![CDATA[
    .str0 {stroke:white;stroke-width:42.3301}
    .fil1 {fill:#313787}
    .fil0 {fill:#313787}
    .fil2 {fill:white}
   ]]>
  </style>
 </defs>
 <g id="Layer_x0020_1">
  <metadata id="CorelCorpID_0Corel-Layer"/>
  <g id="_328312504">
   <circle class="fil0" cx="2694" cy="2348" r="686"/>
   <path class="fil0" d="M920 1907l296 0 0 729 263 0 0 -1108 297 0 0 1108 145 0c20,53 45,104 75,152l-1996 0 0 -152 360 0 0 -475 296 0 0 475 264 0 0 -729zm1119 -60l0 -902 296 0 0 661c-117,56 -218,139 -296,241zm560 -318l0 -1044 296 0 0 1063c-64,-16 -132,-24 -201,-24 -32,0 -64,2 -95,5z"/>
   <polygon class="fil1" points="2080,0 2482,53 2429,455 "/>
   <rect class="fil1" transform="matrix(0.433414 0.581681 -0.581681 0.433414 2330.09 97.7317)" width="152" height="3302"/>
   <path class="fil2 str0" d="M2729 2343c6,5 18,18 24,24 7,8 18,16 28,20 28,11 53,7 77,-6 10,-6 17,-13 26,-22l71 -71c32,-33 64,-64 96,-96 8,-8 15,-16 24,-24 28,-27 32,-73 12,-105 -8,-14 -23,-26 -35,-38 -19,-19 -39,-40 -59,-59 -18,-16 -39,-26 -71,-23 -27,3 -42,19 -60,36l-167 167c-17,17 -33,30 -42,54 -4,12 -5,28 -3,43 5,36 48,28 41,-4 -5,-24 5,-36 19,-50l155 -155c11,-10 38,-40 49,-46 12,-6 28,-6 40,0 11,5 17,13 26,22 20,20 40,39 60,60 2,2 4,4 6,6 11,11 16,26 11,44 -3,12 -12,21 -19,28l-167 167c-17,17 -32,38 -58,38 -15,-1 -24,-7 -32,-15 -8,-8 -17,-16 -24,-24 6,-5 48,-47 51,-52 14,-20 -14,-43 -32,-24 -13,12 -109,110 -117,115 -3,-2 -20,-20 -24,-24 -29,-29 -72,-33 -105,-13 -15,8 -37,33 -50,45 -16,16 -31,32 -47,48 -33,32 -64,64 -96,96 -8,8 -16,16 -24,24 -28,27 -32,73 -12,104 6,11 13,18 22,26l24 24c37,32 58,78 120,70 13,-1 25,-8 34,-13 13,-9 104,-102 120,-118l95 -95c18,-19 26,-46 22,-73 -5,-37 -48,-27 -41,3 3,16 0,28 -7,38 -10,12 -154,155 -167,167 -9,9 -38,40 -49,46 -12,7 -27,7 -40,1 -14,-7 -42,-40 -56,-52 -2,-2 -3,-4 -6,-6 -4,-4 -8,-7 -12,-11 -17,-18 -36,-33 -30,-62 3,-14 12,-21 20,-28l190 -191c8,-8 17,-15 34,-15 16,0 24,6 33,15 4,4 8,8 12,12 4,4 9,8 12,12 -6,5 -49,47 -52,52 -12,20 14,43 34,23 4,-4 8,-8 12,-12 19,-19 46,-48 65,-64 12,-12 23,-25 35,-36l4 -3z"/>
  </g>
 </g>
</svg>
