<?xml version="1.0" encoding="UTF-8"?>
<!DOCTYPE svg PUBLIC "-//W3C//DTD SVG 1.1//EN" "http://www.w3.org/Graphics/SVG/1.1/DTD/svg11.dtd">
<!-- Creator: CorelDRAW X7 -->
<svg xmlns="http://www.w3.org/2000/svg" xml:space="preserve" width="39.0864mm" height="34.8502mm" version="1.1" style="shape-rendering:geometricPrecision; text-rendering:geometricPrecision; image-rendering:optimizeQuality; fill-rule:evenodd; clip-rule:evenodd"
viewBox="0 0 3912 3488"
 xmlns:xlink="http://www.w3.org/1999/xlink">
 <defs>
  <style type="text/css">
   <![CDATA[
    .fil1 {fill:#294E86}
    .fil0 {fill:#313787}
   ]]>
  </style>
 </defs>
 <g id="Layer_x0020_1">
  <metadata id="CorelCorpID_0Corel-Layer"/>
  <path class="fil0" d="M2048 3077c370,98 422,104 789,-3l1 172c-181,114 -831,244 -790,-169zm1032 -37c-118,-46 -113,-82 -93,-229 338,106 441,95 774,0 20,154 18,190 -110,234 -161,55 -418,55 -571,-5zm-637 -18c-389,-1 -399,-100 -403,-268 464,44 142,133 803,-8 0,145 13,181 -112,228 -70,27 -214,49 -288,48zm536 -537c299,69 495,113 788,-5l-16 180c-118,66 -199,91 -365,91 -361,0 -408,-63 -407,-266zm-536 7c159,0 252,-45 400,-75l0 161c-136,80 -247,123 -471,109 -316,-20 -328,-106 -332,-262 150,10 228,67 403,67zm540 -204c111,-195 668,-187 782,0 -104,186 -674,200 -782,0zm-540 70c-378,-1 -403,-95 -400,-275 393,69 320,127 799,-5 4,155 14,281 -399,280zm-394 -606c99,14 160,69 394,69 176,-1 265,-47 401,-69l-6 166c-176,107 -841,235 -789,-166zm0 -195c106,-185 575,-156 787,-29l-1 51c0,4 -9,5 -50,36 -112,84 -602,140 -736,-58zm-92 -616c-37,-7 -31,5 -26,-30 -258,72 64,194 156,366l15 58c-88,107 -181,39 -189,267 -14,404 29,964 -4,1346 -237,106 -1383,172 -1661,-305 -341,-586 113,-1260 547,-1652 320,-289 489,-243 759,-193 79,-108 113,-26 76,-153 -44,-14 -348,-29 -488,-5 -34,-74 -83,-148 -131,-221 -25,-39 -50,-66 -69,-100 -208,-356 664,-70 847,-78 -15,65 -296,473 -25,353 -4,-35 -13,-27 20,-27 16,-85 68,-140 116,-214 222,-345 -150,-226 -328,-263 -241,-52 -682,-236 -841,146 79,143 202,277 272,448 -40,41 -140,91 -208,144 -472,371 -878,919 -780,1578 111,749 1020,768 1627,731 106,-7 185,-35 266,-36 24,181 12,241 166,310 224,101 509,103 738,1 120,-54 163,-94 168,-271 225,59 440,127 701,30 293,-110 223,-241 223,-553 0,-333 57,-473 -248,-556 -232,-63 -458,-50 -667,33 -35,-221 51,-547 -81,-674 -146,-140 -386,-110 -630,-129 -108,-117 -210,-252 -321,-351z"/>
  <path class="fil0" d="M1422 2280c-320,42 -135,-68 -372,-56 14,206 127,132 186,237 22,39 -1,42 28,97l96 4c21,-53 8,-78 37,-117 30,-40 255,-103 164,-337 -52,-133 -285,-152 -335,-187 -61,-43 -32,6 -39,-58 -9,-68 -19,-94 102,-106 54,-6 64,0 105,16 85,35 -26,3 68,37 55,21 49,15 111,17 -6,-79 8,-44 -25,-109 -21,-39 -44,-47 -75,-65 -176,-100 -43,-10 -115,-165l-93 2c-92,216 24,53 -151,176 -63,44 -93,175 -50,276 100,228 439,39 358,338z"/>
  <path class="fil0" d="M302 2136l120 -5c125,-673 339,-734 692,-1046l-62 -97c-411,218 -800,761 -750,1148z"/>
  <path class="fil1" d="M1815 842c-47,10 -30,16 -35,-37l-13 1 -32 -30c-82,-7 -152,14 -95,94 39,55 89,75 159,69l16 -97z"/>
 </g>
</svg>
