<?xml version="1.0" encoding="UTF-8"?>
<!DOCTYPE svg PUBLIC "-//W3C//DTD SVG 1.1//EN" "http://www.w3.org/Graphics/SVG/1.1/DTD/svg11.dtd">
<!-- Creator: CorelDRAW X7 -->
<svg xmlns="http://www.w3.org/2000/svg" xml:space="preserve" width="26.7645mm" height="37.6727mm" version="1.1" style="shape-rendering:geometricPrecision; text-rendering:geometricPrecision; image-rendering:optimizeQuality; fill-rule:evenodd; clip-rule:evenodd"
viewBox="0 0 2676 3767"
 xmlns:xlink="http://www.w3.org/1999/xlink">
 <defs>
  <style type="text/css">
   <![CDATA[
    .fil1 {fill:#294E86}
    .fil0 {fill:#313787}
   ]]>
  </style>
 </defs>
 <g id="Layer_x0020_1">
  <metadata id="CorelCorpID_0Corel-Layer"/>
  <g id="_522500752">
   <path class="fil0" d="M1386 1784c151,0 303,1 454,0 231,-1 222,-40 325,119 255,393 557,818 300,1293 -372,691 -1486,526 -1663,-133 -128,-475 188,-907 451,-1277l133 -2zm-1260 -1076c0,-177 -25,-153 383,-142l-1 1088c-422,15 -387,45 -383,-172l1 -774zm518 58c268,-42 189,18 350,-154 84,-90 156,-161 328,-176l89 120c-22,101 -64,12 -72,201 242,2 708,-64 864,87 30,164 0,722 -112,802 -107,45 -722,28 -885,13 -151,-14 -204,-88 -307,-146 -206,-117 -261,65 -262,-192l7 -555zm789 -622c128,-34 654,95 680,110 -239,425 -133,379 -541,374 -81,-243 -340,-432 -139,-484zm627 484c50,-140 154,-254 210,-377 95,-209 -197,-135 -345,-172 -161,-41 -302,-103 -491,-69 -297,53 -215,285 -218,303 -62,41 -133,64 -188,106 -159,121 -181,237 -322,216 -98,-16 -53,-22 -64,-65l-18 -100c0,-10 -2,-13 -5,-19 -99,-29 -502,-28 -598,4l-11 34c-24,118 11,-116 -6,38 -3,21 -2,66 -2,89l-2 1165 643 -6c-8,-176 5,-255 192,-154l255 156c-115,231 -249,334 -379,689 -106,292 -75,648 72,864 639,935 2554,299 1660,-1226 -338,-576 -208,-137 -133,-741 49,-395 110,-645 -250,-735z"/>
   <path class="fil0" d="M1597 2235c-141,25 -202,97 -188,243 12,128 105,159 234,199 46,14 111,33 133,69 68,109 -15,257 -196,177 -92,-41 18,-54 -168,-53 5,82 26,127 95,167 136,79 74,-12 108,161l112 -5c48,-180 -32,-69 113,-169 103,-70 161,-354 -64,-438 -70,-26 -157,-50 -228,-76 -15,-125 -4,-175 154,-149 167,27 25,91 213,58 -2,-151 -98,-124 -160,-198 -83,-99 56,-86 -79,-111 -119,-23 -62,6 -79,125z"/>
   <path class="fil0" d="M1864 3473c240,8 587,-328 562,-600l-109 -1c-30,61 -32,120 -72,196 -184,352 -418,153 -381,405z"/>
   <polygon class="fil1" points="251,821 386,824 382,691 258,692 "/>
  </g>
 </g>
</svg>
