<?xml version="1.0" encoding="UTF-8"?>
<!DOCTYPE svg PUBLIC "-//W3C//DTD SVG 1.1//EN" "http://www.w3.org/Graphics/SVG/1.1/DTD/svg11.dtd">
<!-- Creator: CorelDRAW X7 -->
<svg xmlns="http://www.w3.org/2000/svg" xml:space="preserve" width="145.36mm" height="142.491mm" version="1.1" style="shape-rendering:geometricPrecision; text-rendering:geometricPrecision; image-rendering:optimizeQuality; fill-rule:evenodd; clip-rule:evenodd"
viewBox="0 0 1268 1243"
 xmlns:xlink="http://www.w3.org/1999/xlink">
 <defs>
  <style type="text/css">
   <![CDATA[
    .fil0 {fill:#313787}
    .fil1 {fill:white}
    .fil2 {fill:#313787;fill-rule:nonzero}
   ]]>
  </style>
 </defs>
 <g id="Layer_x0020_1">
  <metadata id="CorelCorpID_0Corel-Layer"/>
  <g id="_289364640">
   <g>
    <path class="fil0" d="M671 766c-42,0 -55,-21 -83,-48 -29,-29 -50,-42 -50,-87 0,-31 20,-45 29,-55 11,-14 165,-167 181,-183l27 -28c21,-20 36,-41 64,-48 49,-13 76,25 107,56 19,19 41,36 41,73 0,23 -12,43 -24,55 -13,13 -26,26 -40,40 -27,27 -52,53 -79,79l-119 120c-14,14 -31,26 -54,26zm-274 -131l33 34c11,11 24,23 35,34 19,23 46,48 67,69 23,23 45,45 68,68l51 52c5,5 12,13 17,17l345 -347c10,-10 19,-19 29,-29l14 -15c5,-5 9,-10 14,-15 10,-10 19,-19 29,-29 7,-7 25,-22 29,-29 -5,-4 -62,-62 -68,-68l-67 -68c-10,-11 -118,-117 -127,-127 -3,-4 -4,-6 -8,-9 -6,3 -50,48 -58,57l-274 274c-5,6 -8,10 -14,16 -19,19 -38,38 -57,57 -9,9 -54,53 -58,58z"/>
    <path class="fil0" d="M327 725c-4,32 -31,198 -31,219 -2,30 19,54 45,54 27,0 47,-6 76,-11 25,-4 174,-32 189,-34l-60 -60c-4,-4 -5,-5 -8,-9l-136 -136c-12,-12 -23,-23 -35,-35 -6,-6 -10,-11 -16,-17 -4,-4 -13,-15 -17,-16l-7 45z"/>
    <path class="fil0" d="M1214 306l0 -4c-1,-3 -1,-9 -2,-15 -7,-33 -25,-55 -48,-78 -24,-24 -48,-48 -72,-72 -6,-6 -11,-11 -18,-18 -5,-5 -12,-13 -18,-18 -45,-34 -100,-34 -145,-1 -4,4 -6,7 -10,9l33 34c3,3 6,5 9,8 3,4 5,6 8,10 21,23 61,61 85,85l85 85c10,9 43,46 51,51 18,-12 41,-43 41,-69l1 -7z"/>
   </g>
   <path class="fil1" d="M59 1184l134 0 -14 -3c-30,-7 -54,-20 -75,-42 -20,-20 -36,-47 -42,-76l-2 -13c0,0 -1,0 -1,-1l0 135z"/>
   <path class="fil1" d="M59 164l3 -14c12,-59 63,-109 124,-119l7 -1 -134 0 0 134z"/>
   <path class="fil2" d="M242 0l352 0 65 118 -417 0c-34,0 -65,14 -87,37 -23,22 -37,53 -37,87l0 759c0,34 14,65 37,87 22,23 53,37 87,37l784 0c34,0 65,-14 87,-37 23,-22 37,-53 37,-87l0 -209 118 -78 0 287c0,67 -27,127 -71,171 -44,44 -104,71 -171,71l-784 0c-67,0 -127,-27 -171,-71 -44,-44 -71,-104 -71,-171l0 -759c0,-67 27,-127 71,-171 44,-44 104,-71 171,-71z"/>
  </g>
 </g>
</svg>
