<?xml version="1.0" encoding="UTF-8"?>
<!DOCTYPE svg PUBLIC "-//W3C//DTD SVG 1.1//EN" "http://www.w3.org/Graphics/SVG/1.1/DTD/svg11.dtd">
<!-- Creator: CorelDRAW X7 -->
<svg xmlns="http://www.w3.org/2000/svg" xml:space="preserve" width="28.7716mm" height="35.4952mm" version="1.1" style="shape-rendering:geometricPrecision; text-rendering:geometricPrecision; image-rendering:optimizeQuality; fill-rule:evenodd; clip-rule:evenodd"
viewBox="0 0 2877 3550"
 xmlns:xlink="http://www.w3.org/1999/xlink">
 <defs>
  <style type="text/css">
   <![CDATA[
    .fil1 {fill:#FEFEFE}
    .fil0 {fill:#313787}
   ]]>
  </style>
 </defs>
 <g id="Layer_x0020_1">
  <metadata id="CorelCorpID_0Corel-Layer"/>
  <g id="_520694616">
   <path class="fil0" d="M1677 656c85,34 577,349 725,440 70,43 167,93 225,150l-1 2111 -949 0 0 -2701zm-1677 2894l2877 0 -5 -186 -126 -10 -5 -2192 -879 -537c-130,-82 -143,-122 -313,-66 -52,17 -1363,431 -1412,478l-3 2319 -132 11 -2 183z"/>
   <path class="fil0" d="M1696 0l-45 0 -1268 488 -5 376 122 -40c-2,-78 -12,-184 9,-246 73,-57 862,-340 1020,-400 188,-71 153,-25 439,168 91,62 343,237 397,301l0 193 119 74 -6 -328c-10,-30 -690,-510 -782,-586z"/>
   <polygon class="fil1" points="452,2002 1309,1867 1309,2150 452,2261 "/>
   <polygon class="fil1" points="477,1608 1327,1405 1332,1701 477,1867 "/>
   <polygon class="fil1" points="465,1201 1310,980 1319,1257 465,1460 "/>
   <polygon class="fil1" points="465,2409 1319,2310 1303,2614 465,2668 "/>
   <polygon class="fil1" points="465,2822 1318,2747 1303,3027 465,3081 "/>
  </g>
 </g>
</svg>
