<?xml version="1.0" encoding="UTF-8"?>
<!DOCTYPE svg PUBLIC "-//W3C//DTD SVG 1.1//EN" "http://www.w3.org/Graphics/SVG/1.1/DTD/svg11.dtd">
<!-- Creator: CorelDRAW X7 -->
<svg xmlns="http://www.w3.org/2000/svg" xml:space="preserve" width="6.35mm" height="6.35mm" version="1.1" style="shape-rendering:geometricPrecision; text-rendering:geometricPrecision; image-rendering:optimizeQuality; fill-rule:evenodd; clip-rule:evenodd"
viewBox="0 0 635 635"
 xmlns:xlink="http://www.w3.org/1999/xlink">
 <defs>
  <style type="text/css">
   <![CDATA[
    .fil0 {fill:#FFAE00}
    .fil1 {fill:white}
   ]]>
  </style>
 </defs>
 <g id="Layer_x0020_1">
  <metadata id="CorelCorpID_0Corel-Layer"/>
  <path class="fil0" d="M318 0c87,0 167,36 224,93 57,57 93,137 93,225 0,87 -36,167 -93,224 -57,57 -137,93 -224,93 -88,0 -168,-36 -225,-93 -57,-57 -93,-137 -93,-224 0,-88 36,-168 93,-225 57,-57 137,-93 225,-93z"/>
  <g id="_284204528">
   <rect class="fil1" x="284" y="127" width="67.73" height="245.53" rx="14" ry="14"/>
   <circle class="fil1" cx="318" cy="461" r="47"/>
  </g>
 </g>
</svg>
