<?xml version="1.0" encoding="UTF-8"?>
<!DOCTYPE svg PUBLIC "-//W3C//DTD SVG 1.1//EN" "http://www.w3.org/Graphics/SVG/1.1/DTD/svg11.dtd">
<!-- Creator: CorelDRAW X7 -->
<svg xmlns="http://www.w3.org/2000/svg" xml:space="preserve" width="157.942mm" height="152.579mm" version="1.1" style="shape-rendering:geometricPrecision; text-rendering:geometricPrecision; image-rendering:optimizeQuality; fill-rule:evenodd; clip-rule:evenodd"
viewBox="0 0 1887 1823"
 xmlns:xlink="http://www.w3.org/1999/xlink">
 <defs>
  <style type="text/css">
   <![CDATA[
    .fil0 {fill:#313787}
   ]]>
  </style>
 </defs>
 <g id="Layer_x0020_1">
  <metadata id="CorelCorpID_0Corel-Layer"/>
  <path class="fil0" d="M281 284l-149 -75c5,36 12,70 18,106l19 106c6,37 12,68 19,106 3,19 14,97 20,108 15,-2 168,-80 194,-93l194 -98 -148 -75c62,-48 43,-42 126,-94 86,-53 241,-99 343,-98 62,0 91,-2 161,11 165,32 304,111 416,237 19,21 33,46 54,64l86 -171c-104,-136 -298,-247 -470,-291 -205,-51 -410,-29 -601,57 -84,38 -160,88 -229,150 -17,15 -36,37 -53,50z"/>
  <path class="fil0" d="M1249 1458l109 55c-20,24 -87,54 -117,68 -48,23 -81,29 -128,43 -16,5 -25,6 -42,9 -57,10 -76,12 -138,12 -30,0 -65,-1 -96,-6 -183,-35 -319,-100 -445,-242 -17,-19 -35,-48 -54,-64l-87 170c80,104 198,178 317,238 88,45 185,62 276,75 184,28 430,-34 589,-138l102 -76 178 90c3,-13 -4,-37 -7,-52l-27 -160c-6,-31 -40,-199 -37,-215l-7 -4c-16,18 -370,179 -386,197z"/>
  <path class="fil0" d="M65 884c0,36 15,67 32,88 12,15 36,31 54,38 13,4 15,0 22,9 -24,0 -53,12 -69,21 -63,35 -104,96 -104,177l395 0c0,-81 -41,-142 -104,-177 -16,-9 -46,-21 -69,-21 8,-11 11,-3 40,-18 11,-6 27,-18 34,-28 86,-111 -11,-219 -90,-219 -46,0 -71,9 -104,41 -11,12 -18,21 -25,36 -5,12 -12,36 -12,53z"/>
  <path class="fil0" d="M1565 753c0,16 5,36 10,48 7,19 14,30 28,44 15,15 24,21 46,30l15 5c1,0 2,1 2,1l5 2c-57,13 -75,19 -116,59 -33,33 -53,75 -53,133l385 0c0,-79 -42,-137 -102,-171 -19,-11 -42,-16 -66,-21 14,-9 32,-5 64,-35 1,-1 1,-1 2,-2 0,0 1,-1 1,-1 44,-44 49,-114 16,-163l-15 -18c-5,-6 -10,-9 -16,-14 -38,-31 -105,-33 -147,-4 -14,10 -23,19 -34,33 -13,16 -25,52 -25,74z"/>
  <g id="_289375344">
   <path class="fil0" d="M1109 825l8 154c1,9 4,12 13,11l232 -12c35,-2 2,-175 2,-180l-244 14c-9,0 -12,3 -11,13z"/>
   <path class="fil0" d="M864 1099l13 243c4,0 180,13 178,-22l-13 -231c0,-10 -3,-12 -13,-12l-154 9c-9,0 -12,3 -11,13z"/>
   <path class="fil0" d="M509 935c2,43 11,60 13,89l243 -14c9,0 12,-3 12,-12l-9 -155c0,-9 -3,-12 -13,-11l-231 13c-15,0 -14,21 -14,37 -1,20 -3,28 -1,53z"/>
   <path class="fil0" d="M831 502l12 231c1,10 4,12 13,12l154 -9c10,0 13,-3 12,-12l-13 -244c-56,3 -46,-12 -139,3 -16,3 -40,3 -39,19z"/>
   <path class="fil0" d="M1135 1299c74,-21 201,-164 215,-239 -32,1 -212,3 -224,15 -11,13 7,192 9,224z"/>
   <path class="fil0" d="M794 1318c-1,-32 -3,-212 -16,-223 -12,-12 -192,7 -223,8 6,21 31,55 43,72l41 45c36,37 108,90 155,98z"/>
   <path class="fil0" d="M1331 719c-11,-38 -56,-88 -85,-117 -7,-7 -6,-9 -13,-15 -7,-6 -9,-5 -17,-12 -23,-18 -13,-14 -49,-35 -18,-11 -55,-32 -76,-36 2,32 4,212 16,223 13,12 192,-6 224,-8z"/>
   <path class="fil0" d="M536 763c32,-2 212,-4 223,-16 12,-13 -7,-192 -8,-224 -40,11 -103,68 -131,99 -28,32 -77,101 -84,141z"/>
   <path class="fil0" d="M849 839l9 154c0,9 3,12 13,12l154 -9c9,0 12,-3 11,-13l-8 -154c-1,-9 -4,-12 -13,-11l-154 8c-10,1 -12,4 -12,13z"/>
  </g>
 </g>
</svg>
