<?xml version="1.0" encoding="UTF-8"?>
<!DOCTYPE svg PUBLIC "-//W3C//DTD SVG 1.1//EN" "http://www.w3.org/Graphics/SVG/1.1/DTD/svg11.dtd">
<!-- Creator: CorelDRAW X7 -->
<svg xmlns="http://www.w3.org/2000/svg" xml:space="preserve" width="6.35mm" height="6.35mm" version="1.1" style="shape-rendering:geometricPrecision; text-rendering:geometricPrecision; image-rendering:optimizeQuality; fill-rule:evenodd; clip-rule:evenodd"
viewBox="0 0 635 635"
 xmlns:xlink="http://www.w3.org/1999/xlink">
 <defs>
  <style type="text/css">
   <![CDATA[
    .str0 {stroke:#D80000;stroke-width:42.33}
    .fil0 {fill:#D80000}
    .fil1 {fill:white}
   ]]>
  </style>
 </defs>
 <g id="Layer_x0020_1">
  <metadata id="CorelCorpID_0Corel-Layer"/>
  <path class="fil0" d="M318 0c56,0 109,15 155,40l-433 433c-25,-46 -40,-99 -40,-155 0,-88 36,-168 93,-225 57,-57 137,-93 225,-93zm277 162c25,46 40,99 40,156 0,87 -36,167 -93,224 -57,57 -137,93 -224,93 -57,0 -110,-15 -156,-40l433 -433z"/>
  <rect class="fil1 str0" transform="matrix(0.585625 0.592938 -0.711481 0.702706 528.099 35.5482)" width="127" height="694"/>
 </g>
</svg>
